<svg width="859" height="859" viewBox="0 0 859 859" fill="none" xmlns="http://www.w3.org/2000/svg">
<g clip-path="url(#clip0_156_453)">
<mask id="mask0_156_453" style="mask-type:luminance" maskUnits="userSpaceOnUse" x="0" y="0" width="859" height="859">
<path d="M858.891 0H0V858.891H858.891V0Z" fill="white"/>
</mask>
<g mask="url(#mask0_156_453)">
<path d="M693.361 729.19C693.361 752.588 571.896 771.555 422.062 771.555C272.227 771.555 150.762 752.588 150.762 729.19C150.762 705.792 272.227 686.825 422.062 686.825C571.896 686.825 693.361 705.792 693.361 729.19Z" fill="#E3DFD9"/>
<path d="M340.702 123.718C359.793 109.039 382.423 99.4268 407.359 98.1325C419.443 97.5053 432.561 99.4899 441.238 107.929C464.068 130.134 459.393 180.368 457.68 209.75C453.558 280.411 432.546 349.355 401.535 412.717C386.19 444.067 368.341 474.179 348.488 502.881C339.367 516.067 329.725 528.894 320.923 542.3C317.228 547.926 292.618 582.693 296.734 588.64C277.832 561.326 268.064 528.533 263.841 495.587C257.595 446.857 250.705 396.62 255.408 346.798C260.242 295.581 270.067 244.491 288.094 196.197C298.487 168.355 316.827 142.075 340.702 123.718Z" fill="#C1E2E1"/>
<path d="M293.297 613.853C290.265 528.293 301.529 442.792 321.598 359.719C340.743 280.472 364.594 201.192 398.384 126.876C402.701 117.38 407.197 107.963 411.886 98.6436" stroke="#A66B35" stroke-width="1.76364" stroke-miterlimit="10"/>
<path d="M458.44 185.942C429.583 197.041 401.727 210.741 375.328 226.836C365.684 232.716 360.397 234.394 352.209 242.174" stroke="#3C7328" stroke-width="1.76364" stroke-miterlimit="10"/>
<path d="M327.612 332.402C363.65 311.668 403.414 297.444 444.412 290.547" stroke="#3C7328" stroke-width="1.76364" stroke-miterlimit="10"/>
<path d="M306.02 441.458C337.307 417.054 373.522 399.022 411.806 388.616" stroke="#9A7240" stroke-width="1.76364" stroke-miterlimit="10"/>
<path d="M354.435 239.476C353.935 201.656 347.616 163.922 335.818 127.988" stroke="#9A7240" stroke-width="1.76364" stroke-miterlimit="10"/>
<path d="M328.318 328.713C315.212 296.43 296.911 266.271 274.391 239.688" stroke="#9A7240" stroke-width="1.76364" stroke-miterlimit="10"/>
<path d="M303.365 444.454C301.385 431.741 297.401 419.342 291.607 407.855C284.865 394.492 275.762 382.479 266.466 370.749C262.684 365.976 258.862 361.236 255 356.529" stroke="#9A7240" stroke-width="1.76364" stroke-miterlimit="10"/>
<path d="M203.822 285.375C189.697 278.122 173.879 274.575 157.552 276.697C149.641 277.725 141.369 280.57 136.743 287.074C124.573 304.185 133.571 336.211 138.171 355.063C149.235 400.403 171.05 442.622 198.686 480.032C212.361 498.544 227.513 515.954 243.798 532.211C251.279 539.679 259.055 546.853 266.357 554.502C269.42 557.713 289.51 577.338 287.547 581.684C296.563 561.725 299.003 539.297 297.83 517.428C296.095 485.082 294.597 451.682 285.631 419.928C276.414 387.285 263.974 355.317 246.548 326.136C236.502 309.312 221.487 294.446 203.822 285.375Z" fill="#6D8F83"/>
<path d="M292.771 597.628C284.576 541.777 267.118 487.663 244.238 436.169C222.41 387.045 197.527 338.459 166.788 294.273C162.761 288.485 158.622 282.772 154.363 277.151" fill="#6D8F83"/>
<path d="M292.771 597.628C284.576 541.777 267.118 487.663 244.238 436.169C222.41 387.045 197.527 338.459 166.788 294.273C162.761 288.485 158.622 282.772 154.363 277.151" stroke="#E8C294" stroke-width="1.76364" stroke-miterlimit="10"/>
<path d="M134.477 339.643C154.639 343.416 174.46 349.016 193.61 356.366C200.563 359.034 204.191 359.494 210.425 363.567" fill="#6D8F83"/>
<path d="M134.477 339.643C154.639 343.416 174.46 349.016 193.61 356.366C200.563 359.034 204.191 359.494 210.425 363.567" stroke="#E8C294" stroke-width="1.76364" stroke-miterlimit="10"/>
<path d="M237.093 419.165C210.971 409.895 183.169 405.394 155.458 405.904L237.093 419.165Z" fill="#6D8F83"/>
<path d="M237.093 419.165C210.971 409.895 183.169 405.394 155.458 405.904" stroke="#E8C294" stroke-width="1.76364" stroke-miterlimit="10"/>
<path d="M264.047 487.33C240.692 475.132 214.863 467.719 188.606 465.575L264.047 487.33Z" fill="#6D8F83"/>
<path d="M264.047 487.33C240.692 475.132 214.863 467.719 188.606 465.575" stroke="#E8C294" stroke-width="1.76364" stroke-miterlimit="10"/>
<path d="M208.662 362.081C204.478 337.398 204.109 312.074 207.537 287.275L208.662 362.081Z" fill="#6D8F83"/>
<path d="M208.662 362.081C204.478 337.398 204.109 312.074 207.537 287.275" stroke="#E8C294" stroke-width="1.76364" stroke-miterlimit="10"/>
<path d="M236.198 416.857C240.88 394.286 249.208 372.481 260.718 352.511L236.198 416.857Z" fill="#6D8F83"/>
<path d="M236.198 416.857C240.88 394.286 249.208 372.481 260.718 352.511" stroke="#E8C294" stroke-width="1.76364" stroke-miterlimit="10"/>
<path d="M266.124 488.959C265.899 480.479 267.009 471.964 269.404 463.826C272.189 454.359 276.668 445.487 281.303 436.775C283.218 433.176 285.165 429.592 287.143 426.026" fill="#6D8F83"/>
<path d="M266.124 488.959C265.899 480.479 267.009 471.964 269.404 463.826C272.189 454.359 276.668 445.487 281.303 436.775C283.218 433.176 285.165 429.592 287.143 426.026" stroke="#E8C294" stroke-width="1.76364" stroke-miterlimit="10"/>
<path d="M359.566 559.708H219.166C219.166 639.006 243.797 718.303 243.797 718.303H334.934C334.934 718.303 359.566 639.351 359.566 559.708Z" fill="#9BA5B1"/>
<path d="M370.239 559.709H208.492V538.361H370.239V559.709Z" fill="#B5B5B5"/>
<path d="M438.901 706.642C417.26 706.067 395.921 703.658 376.224 695.067C367.295 691.172 358.263 685.3 355.196 676.054C353.892 672.123 353.793 667.908 353.762 663.766C353.646 648.314 354.653 633.449 353.869 618.05C353.059 602.153 353.045 586.23 352.834 570.318C352.472 543.083 353.601 515.795 357.181 488.779C357.76 484.417 358.895 480.129 360.551 476.053C362.203 471.986 364.403 468.093 367.441 464.924C370.307 461.937 373.832 459.678 377.322 457.449C389.47 449.685 406.43 442.886 412.776 429.203C416.85 420.416 417.788 410.533 418.238 400.857C430.022 400.024 441.861 399.942 453.656 400.612C452.768 409.256 452.604 418.153 455.149 426.462C455.895 428.895 456.38 431.473 458.083 433.425C463.767 439.938 470.628 444.246 478.233 447.877C485.55 451.371 492.453 455.705 498.981 460.493C504.701 464.689 508.705 471.982 511.868 478.362C520.651 496.082 521.089 516.625 521.35 536.401C521.606 555.934 521.986 576.041 522.397 595.794C522.995 624.424 523.539 652.657 523.431 681.268C523.419 684.703 523.389 688.226 522.15 691.428C520.716 695.128 517.765 698.077 514.44 700.241C504.504 706.707 491.848 706.624 479.994 706.63C466.401 706.634 452.59 707.005 438.901 706.642Z" fill="#CC8F50"/>
<path d="M468.181 446.113C468.932 445.291 469.614 444.403 470.29 443.513C465.833 440.761 461.699 437.568 458.083 433.425C456.38 431.473 455.895 428.895 455.149 426.462C452.604 418.153 452.769 409.256 453.656 400.612C441.861 399.942 430.022 400.024 418.238 400.857C417.788 410.533 416.85 420.416 412.776 429.203C409.712 435.809 404.155 440.791 397.881 445.071C400.773 448.277 404.12 450.992 407.637 452.914C407.726 452.964 407.815 453.012 407.905 453.06C426.442 462.96 453.13 462.608 468.181 446.113Z" fill="#DBB689"/>
<path d="M479.25 694.714L470.513 667.576C493.269 660.249 518.629 650.641 531.532 629.233C551.737 595.712 531.364 561.158 514.444 535.242L542.76 516.271C572.984 562.573 577.667 607.916 555.945 643.954C538.813 672.372 508.958 685.144 479.25 694.714Z" fill="#FACE98"/>
<path d="M560.841 522.196C548.074 533.358 526.608 544.88 511.709 552.978C514.532 551.444 510.335 513.23 509.103 509.327C504.701 495.376 496.087 481.667 492.579 467.705C487.325 446.801 528.276 480.427 532.439 484.707C543.397 495.973 552.977 508.586 560.841 522.196Z" fill="#C77818"/>
<path d="M393.557 694.725C363.848 685.155 333.994 672.383 316.862 643.965C295.14 607.926 299.823 562.583 330.046 516.282L359.171 535.989C342.251 561.905 321.07 595.722 341.275 629.243C354.177 650.651 379.538 660.26 402.294 667.586L393.557 694.725Z" fill="#FACE98"/>
<path d="M311.965 522.206C324.731 533.368 346.789 543.353 361.688 551.452C358.865 549.917 362.472 513.24 363.703 509.336C368.106 495.385 376.719 481.676 380.228 467.714C385.481 446.81 344.531 480.436 340.367 484.717C329.408 495.982 319.828 508.596 311.965 522.206Z" fill="#C77818"/>
<path d="M518.336 674.257H358.395L346.553 553.101H530.179L518.336 674.257Z" fill="#939393"/>
<path d="M524.478 546.686H352.255L346.554 553.1H530.18L524.478 546.686Z" fill="#E3DFD9"/>
<path d="M345.697 725.509C346.144 718.404 341.122 709.947 335.056 708.091C329.08 706.264 321.724 706.86 315.523 706.489C304.005 705.797 292.343 705.595 280.946 707.828C270.938 709.79 258.161 713.196 258.739 727.694C259.137 737.668 266.216 743.879 274.025 746.748C285.207 750.856 297.138 750.174 308.567 748.064C320.401 745.879 344.545 743.812 345.697 725.509Z" fill="#DF9234"/>
<path d="M494.126 724.883C498.786 723.689 503.425 722.422 508.041 721.085C523.655 716.56 539.102 711.211 554.323 705.063C568.263 699.432 582.803 693.814 594.65 683.001C613.309 665.973 618.063 626.138 591.466 615.784C576.035 609.778 559.631 613.315 544.578 618.973C528.096 625.168 512.2 633.104 496.043 640.36C475.244 649.7 454.456 659.036 433.821 668.882C408.227 681.198 382.471 693.203 355.948 702.373C355.435 702.55 354.89 702.752 354.556 703.252C354.221 703.748 354.169 704.432 354.144 705.074C354.033 707.956 356.791 740.985 358.206 740.985C377.227 740.801 396.074 739.392 415.054 737.967C441.367 735.991 468.044 731.569 494.126 724.883Z" fill="#9E794C"/>
<path d="M358.206 740.985C358.185 740.761 346.779 741.157 345.974 741.169C338.625 741.279 327.13 741.143 323.318 731.713C320.923 725.793 322.294 715.204 326.256 710.718C329.971 706.511 335.723 706.703 340.436 705.532C345.097 704.374 349.874 704.225 354.555 703.252C354.555 703.252 358.203 740.953 358.206 740.985Z" fill="#FACE98"/>
<path d="M524.898 725.51C524.452 718.404 529.474 709.947 535.539 708.091C541.515 706.264 548.872 706.861 555.073 706.489C566.59 705.797 578.253 705.595 589.65 707.829C599.658 709.79 612.434 713.196 611.856 727.694C611.46 737.668 604.38 743.879 596.57 746.748C585.389 750.856 573.457 750.174 562.028 748.064C550.195 745.879 526.051 743.812 524.898 725.51Z" fill="#DF9234"/>
<path d="M376.47 724.882C371.811 723.688 367.171 722.421 362.555 721.084C346.94 716.559 331.494 711.21 316.274 705.062C302.333 699.431 287.793 693.813 275.946 683C257.287 665.972 252.533 626.137 279.131 615.783C294.561 609.777 310.965 613.314 326.017 618.972C342.5 625.167 358.397 633.102 374.554 640.359C395.352 649.699 416.14 659.035 436.777 668.881C462.369 681.197 488.125 693.202 514.649 702.372C515.162 702.549 515.706 702.751 516.041 703.251C516.375 703.747 516.426 704.431 516.451 705.072C516.562 707.955 513.805 740.984 512.39 740.984C493.37 740.8 474.522 739.391 455.542 737.966C429.229 735.99 402.552 731.568 376.47 724.882Z" fill="#BA8F5A"/>
<path d="M512.391 740.984C512.413 740.76 523.817 741.156 524.622 741.168C531.971 741.278 543.467 741.142 547.28 731.712C549.673 725.792 548.303 715.203 544.341 710.717C540.625 706.511 534.873 706.703 530.161 705.531C525.5 704.373 520.723 704.224 516.041 703.251C516.041 703.251 512.394 740.952 512.391 740.984Z" fill="#FACE98"/>
<path d="M487.712 379.425C497.524 350.803 491.79 317.695 460.363 307.262C448.771 303.414 436.371 301.454 424.279 303.181C416.594 304.279 410.039 308.505 402.713 310.723C395.891 312.789 389.711 313.577 384.847 319.507C377.327 328.672 377.449 343.577 377.617 354.806C378.03 382.232 389.363 414.313 418.087 423.612C450.496 434.104 477.51 409.191 487.712 379.425Z" fill="#3F3220"/>
<path d="M384.595 362.517C384.316 377.619 387.2 392.587 392.477 403.029C399.811 417.542 413.603 429.451 429.748 431.399C446.132 433.377 461.637 424.531 469.777 410.463C485.233 383.755 486.671 340.369 463.112 317.481C425.752 281.187 385.364 320.965 384.595 362.517Z" fill="#FACE98"/>
<path d="M393.022 374.748C395.538 382.683 393.796 390.315 389.131 391.793C384.467 393.272 378.647 388.038 376.131 380.103C373.616 372.168 375.358 364.536 380.023 363.057C384.686 361.579 390.507 366.814 393.022 374.748Z" fill="#FACE98"/>
<path d="M474.27 374.748C471.755 382.683 473.497 390.315 478.161 391.793C482.826 393.272 488.646 388.038 491.161 380.103C493.677 372.168 491.935 364.536 487.27 363.057C482.606 361.579 476.786 366.814 474.27 374.748Z" fill="#FACE98"/>
<path d="M481.602 297.521C478.973 294.991 475.964 292.875 472.671 291.357C463.53 287.145 454.169 290.222 444.558 288.907C434.874 287.582 424.612 282.843 415.857 287.193C410.225 289.99 406.854 293.178 400.029 292.374C395.555 291.846 391.135 290.442 386.643 290.77C361.93 292.575 361.426 333.762 383.239 340.313C390.833 342.594 399.184 340.405 406.017 336.382C408.015 335.205 409.97 333.855 412.218 333.285C416.432 332.214 420.762 334.048 425.044 334.803C433.891 336.362 443.413 332.59 452.07 334.909C467.848 339.134 475.937 368.445 478.809 382.379C483.075 370.581 488.289 359.078 491.279 346.893C494.268 334.709 494.893 321.492 490.062 309.913C488.144 305.316 485.238 301.023 481.602 297.521Z" fill="#3F3220"/>
<path d="M385.233 375.289C387.949 358.353 392.559 341.721 398.949 325.804C397.981 328.215 390.38 330.895 388.417 333.573C386.183 336.62 385.62 339.923 384.85 343.647C382.668 354.212 382.425 364.797 385.233 375.289Z" fill="#3F3220"/>
<path d="M632.262 295.018C649.116 295.473 665.891 297.243 682.202 301.793C698.703 306.396 710.815 317.541 715.169 334.367C725.216 373.172 706.037 413.869 662.784 413.983C642.571 414.035 622.295 413.621 602.089 414.142C585.629 414.566 576.174 427.259 567.658 440.177C568.966 430.464 569.563 418.85 561.898 412.744C558.59 410.108 554.327 409.086 550.403 407.507C525.86 397.625 520.834 365.2 525.766 342.255C533.188 307.717 564.367 296.79 596.692 295.499C608.499 295.029 620.4 294.698 632.262 295.018Z" fill="#E3DFD9"/>
<path d="M593.068 325.162C594.893 324.857 596.771 324.795 598.422 324.753C609.727 324.464 621.498 324.279 632.982 324.572C638.856 324.723 644.729 324.995 650.589 325.438C655.638 325.82 660.72 325.732 663.555 330.692C664.921 333.082 664.968 335.978 664.981 338.733C665.029 350.204 665.077 361.676 665.126 373.149C665.133 374.876 665.132 376.649 664.511 378.261C661.345 386.465 645.444 385.857 638.343 386.449C626.458 387.441 614.663 386.808 602.814 385.843C599.401 385.564 595.94 385.228 592.746 383.996C589.55 382.764 586.603 380.509 585.278 377.351C583.203 372.403 583.827 365.362 583.657 360.101C583.381 351.554 583.044 342.724 584.455 334.259C584.759 332.455 585.084 330.596 586.072 329.058C587.613 326.661 590.278 325.628 593.068 325.162Z" fill="#AA7631"/>
<path d="M579.943 329.457C588.321 335.184 595.683 342.207 603.186 348.999C608.248 353.581 613.397 358.095 618.977 362.044C622.039 364.211 623.482 365.62 626.915 363.569C629.971 361.744 632.927 359.735 635.816 357.66C647.432 349.319 657.84 339.459 668.198 329.641" stroke="#FACE98" stroke-width="1.76364" stroke-miterlimit="10"/>
</g>
</g>
<defs>
<clipPath id="clip0_156_453">
<rect width="858.891" height="858.891" fill="white"/>
</clipPath>
</defs>
</svg>
